HIERARCHY
ROOT root
{
	OFFSET	0	13.1	24.9
	CHANNELS 6  Xposition Yposition Zposition Xrotation Yrotation Zrotation
	JOINT spine_1
	{
		OFFSET	0	9.99999	0
		CHANNELS 3  Xrotation Yrotation Zrotation
		JOINT spine_2
		{
			OFFSET	0	112	-10
			CHANNELS 3  Xrotation Yrotation Zrotation
			JOINT spine_3
			{
				OFFSET	0	206.5	19.3
				CHANNELS 3  Xrotation Yrotation Zrotation
				JOINT spine_4
				{
					OFFSET	0	110.4	14.6
					CHANNELS 3  Xrotation Yrotation Zrotation
					JOINT neck_1
					{
						OFFSET	0	71.8	-50.3
						CHANNELS 3  Xrotation Yrotation Zrotation
						JOINT neck_2
						{
							OFFSET	0	86.2	-25.8
							CHANNELS 3  Xrotation Yrotation Zrotation
							JOINT head_ee
							{
								OFFSET	0	179.8	-8.7
								CHANNELS 3  Xrotation Yrotation Zrotation
								End Site
								{
									OFFSET	1	0	0
								}
							}
						}
					}
					JOINT left_clavicle
					{
						OFFSET	-43.2	22.4	-70.8
						CHANNELS 3  Xrotation Yrotation Zrotation
						JOINT left_shoulder
						{
							OFFSET	-93.9	-5.79999	48.7
							CHANNELS 3  Xrotation Yrotation Zrotation
							JOINT left_elbow
							{
								OFFSET	-291.4	-30.8	15.2
								CHANNELS 3  Xrotation Yrotation Zrotation
								JOINT left_lowarm_twist
								{
									OFFSET	-110.7	-3.89999	13.6
									CHANNELS 3  Xrotation Yrotation Zrotation
									JOINT left_hand
									{
										OFFSET	-110.7	-3.89999	13.6
										CHANNELS 3  Xrotation Yrotation Zrotation
										JOINT left_ee
										{
											OFFSET	-80.8	-5.10001	12.1
											CHANNELS 3  Xrotation Yrotation Zrotation
											End Site
											{
												OFFSET	1	0	0
											}
										}
									}
								}
							}
						}
					}
					JOINT right_clavicle
					{
						OFFSET	43.2	22.4	-70.8
						CHANNELS 3  Xrotation Yrotation Zrotation
						JOINT right_shoulder
						{
							OFFSET	93.9	-5.79999	48.7
							CHANNELS 3  Xrotation Yrotation Zrotation
							JOINT right_elbow
							{
								OFFSET	291.4	-30.8	15.2
								CHANNELS 3  Xrotation Yrotation Zrotation
								JOINT right_lowarm_twist
								{
									OFFSET	110.7	-3.89999	13.6
									CHANNELS 3  Xrotation Yrotation Zrotation
									JOINT right_hand
									{
										OFFSET	110.7	-3.89999	13.6
										CHANNELS 3  Xrotation Yrotation Zrotation
										JOINT right_ee
										{
											OFFSET	80.8	-5.10001	12.1
											CHANNELS 3  Xrotation Yrotation Zrotation
											End Site
											{
												OFFSET	1	0	0
											}
										}
									}
								}
							}
						}
					}
				}
			}
		}
	}
	JOINT left_hip
	{
		OFFSET	-82.8	-127.5	0.300001
		CHANNELS 3  Xrotation Yrotation Zrotation
		JOINT left_knee
		{
			OFFSET	-28.2	-396.7	2.2
			CHANNELS 3  Xrotation Yrotation Zrotation
			JOINT left_ankle
			{
				OFFSET	-11.7	-411.3	35.4
				CHANNELS 3  Xrotation Yrotation Zrotation
				JOINT left_toes
				{
					OFFSET	0	-60	-88.6
					CHANNELS 3  Xrotation Yrotation Zrotation
					JOINT left_foot_ee
					{
						OFFSET	-22.5	-16.5	-42.2
						CHANNELS 3  Xrotation Yrotation Zrotation
						End Site
						{
							OFFSET	1	0	0
						}
					}
				}
			}
		}
	}
	JOINT right_hip
	{
		OFFSET	82.8	-127.5	0.300001
		CHANNELS 3  Xrotation Yrotation Zrotation
		JOINT right_knee
		{
			OFFSET	28.2	-396.7	2.2
			CHANNELS 3  Xrotation Yrotation Zrotation
			JOINT right_ankle
			{
				OFFSET	11.7	-411.3	35.4
				CHANNELS 3  Xrotation Yrotation Zrotation
				JOINT right_toes
				{
					OFFSET	0	-60	-88.6
					CHANNELS 3  Xrotation Yrotation Zrotation
					JOINT right_foot_ee
					{
						OFFSET	22.5	-16.5	-42.2
						CHANNELS 3  Xrotation Yrotation Zrotation
						End Site
						{
							OFFSET	1	0	0
						}
					}
				}
			}
		}
	}
}
MOTION
Frames: 10
Frame Time: 0.02
3574.42 741.953 -1474.73 13.2316486574 65.8874223371 -20.8978910216 -2.68714 1.41022 5.90177 -2.66837 1.03251 5.97917 -2.53438 -0.515009 6.04552 -2.58507 0.444434 6.0511 -22.01 17.33 -6.87178 -24.572 36.5517 2.56293 -0.0 0.0 -0.0 -8.29826 21.8861 -9.4052 16.659 -4.53342 76.2211 2.23122 -47.8564 0.990154 7.06346 0.194784 -0.880678 5.33902 28.878 45.776 -0.0 0.0 -0.0 12.199 27.6197 -23.6422 -4.96899 22.4907 -64.3582 0.191343 5.41477 -0.00904827 69.356 2.67382 7.89978 0.599081 2.51902 -2.95949 0.0 0.0 0.0 -16.0613 52.7478 11.7956 -9.70044 0.276243 1.46131 22.978 -11.3905 -3.25585 -20.0907 0.0 0.0 -0.0 0.0 -0.0 11.4175 30.5132 1.83791 -26.6459 -0.157854 -4.04933 24.1289 -19.4066 3.30931 1.04951 -0.0 -0.0 0.0 0.0 0.0 
3574.42 741.953 -1474.73 13.0927218726 65.6198542111 -20.7455240529 -2.68714 1.41022 5.90177 -2.66837 1.03251 5.97917 -2.53438 -0.515009 6.04552 -2.58507 0.444434 6.0511 -22.01 17.33 -6.87178 -24.572 36.5517 2.56293 -0.0 0.0 -0.0 -8.29826 21.8861 -9.4052 16.659 -4.53342 76.2211 2.23122 -47.8564 0.990154 7.06346 0.194784 -0.880678 5.33902 28.878 45.776 -0.0 0.0 -0.0 12.199 27.6197 -23.6422 -4.96899 22.4907 -64.3582 0.191343 5.41477 -0.00904827 69.356 2.67382 7.89978 0.599081 2.51902 -2.95949 0.0 0.0 0.0 -16.0613 52.7478 11.7956 -9.70044 0.276243 1.46131 22.978 -11.3905 -3.25585 -20.0907 0.0 0.0 -0.0 0.0 -0.0 11.4175 30.5132 1.83791 -26.6459 -0.157854 -4.04933 24.1289 -19.4066 3.30931 1.04951 -0.0 -0.0 0.0 0.0 0.0 
3574.42 741.953 -1474.73 13.0003143619 65.4383628416 -20.6439966412 -2.68714 1.41022 5.90177 -2.66837 1.03251 5.97917 -2.53438 -0.515009 6.04552 -2.58507 0.444434 6.0511 -22.01 17.33 -6.87178 -24.572 36.5517 2.56293 -0.0 0.0 -0.0 -8.29826 21.8861 -9.4052 16.659 -4.53342 76.2211 2.23122 -47.8564 0.990154 7.06346 0.194784 -0.880678 5.33902 28.878 45.776 -0.0 0.0 -0.0 12.199 27.6197 -23.6422 -4.96899 22.4907 -64.3582 0.191343 5.41477 -0.00904827 69.356 2.67382 7.89978 0.599081 2.51902 -2.95949 0.0 0.0 0.0 -16.0613 52.7478 11.7956 -9.70044 0.276243 1.46131 22.978 -11.3905 -3.25585 -20.0907 0.0 0.0 -0.0 0.0 -0.0 11.4175 30.5132 1.83791 -26.6459 -0.157854 -4.04933 24.1289 -19.4066 3.30931 1.04951 -0.0 -0.0 0.0 0.0 0.0 
3574.42 741.953 -1474.73 12.5772497712 64.5694185281 -20.1772251742 -2.68714 1.41022 5.90177 -2.66837 1.03251 5.97917 -2.53438 -0.515009 6.04552 -2.58507 0.444434 6.0511 -22.01 17.33 -6.87178 -24.572 36.5517 2.56293 -0.0 0.0 -0.0 -8.29826 21.8861 -9.4052 16.659 -4.53342 76.2211 2.23122 -47.8564 0.990154 7.06346 0.194784 -0.880678 5.33902 28.878 45.776 -0.0 0.0 -0.0 12.199 27.6197 -23.6422 -4.96899 22.4907 -64.3582 0.191343 5.41477 -0.00904827 69.356 2.67382 7.89978 0.599081 2.51902 -2.95949 0.0 0.0 0.0 -16.0613 52.7478 11.7956 -9.70044 0.276243 1.46131 22.978 -11.3905 -3.25585 -20.0907 0.0 0.0 -0.0 0.0 -0.0 11.4175 30.5132 1.83791 -26.6459 -0.157854 -4.04933 24.1289 -19.4066 3.30931 1.04951 -0.0 -0.0 0.0 0.0 0.0 
3564.67086084 740.609 -1476.13812204 12.7828490083 64.732182833 -20.5671670971 -2.73584 1.33865 5.9604 -2.7166 0.957374 6.03313 -2.58912 -0.607656 6.07816 -2.64046 0.358061 6.09788 -21.3905 16.6626 -5.93886 -23.6027 34.9091 2.75881 -0.0 0.0 -0.0 -6.29214 23.627 -5.92193 15.3605 3.34714 73.3736 2.19546 -47.3957 0.963738 5.20809 0.154166 -0.64716 4.90401 31.4172 42.2259 -0.0 0.0 -0.0 12.1728 27.4321 -23.6056 -3.12449 25.4649 -63.9496 0.178187 5.04448 -0.00784908 69.5345 2.69221 7.91343 -0.0220065 2.10849 1.03861 0.0 0.0 0.0 -15.2434 52.8791 11.6081 -11.269 0.29751 1.70104 23.3175 -10.6072 -3.28336 -18.5836 0.0 0.0 -0.0 0.0 -0.0 10.377 29.2956 2.75813 -26.357 -0.166274 -4.0058 23.198 -8.23692 3.12009 1.77842 -0.0 -0.0 0.0 0.0 0.0 
3564.69739741 740.609 -1476.31098729 12.3247120162 63.7392060849 -20.0584790637 -2.73584 1.33865 5.9604 -2.7166 0.957374 6.03313 -2.58912 -0.607656 6.07816 -2.64046 0.358061 6.09788 -21.3905 16.6626 -5.93886 -23.6027 34.9091 2.75881 -0.0 0.0 -0.0 -6.29214 23.627 -5.92193 15.3605 3.34714 73.3736 2.19546 -47.3957 0.963738 5.20809 0.154166 -0.64716 4.90401 31.4172 42.2259 -0.0 0.0 -0.0 12.1728 27.4321 -23.6056 -3.12449 25.4649 -63.9496 0.178187 5.04448 -0.00784908 69.5345 2.69221 7.91343 -0.0220065 2.10849 1.03861 0.0 0.0 0.0 -15.2434 52.8791 11.6081 -11.269 0.29751 1.70104 23.3175 -10.6072 -3.28336 -18.5836 0.0 0.0 -0.0 0.0 -0.0 10.377 29.2956 2.75813 -26.357 -0.166274 -4.0058 23.198 -8.23692 3.12009 1.77842 -0.0 -0.0 0.0 0.0 0.0 
3564.72888522 740.609 -1476.49375062 11.876788122 62.6844175429 -19.5567259557 -2.73584 1.33865 5.9604 -2.7166 0.957374 6.03313 -2.58912 -0.607656 6.07816 -2.64046 0.358061 6.09788 -21.3905 16.6626 -5.93886 -23.6027 34.9091 2.75881 -0.0 0.0 -0.0 -6.29214 23.627 -5.92193 15.3605 3.34714 73.3736 2.19546 -47.3957 0.963738 5.20809 0.154166 -0.64716 4.90401 31.4172 42.2259 -0.0 0.0 -0.0 12.1728 27.4321 -23.6056 -3.12449 25.4649 -63.9496 0.178187 5.04448 -0.00784908 69.5345 2.69221 7.91343 -0.0220065 2.10849 1.03861 0.0 0.0 0.0 -15.2434 52.8791 11.6081 -11.269 0.29751 1.70104 23.3175 -10.6072 -3.28336 -18.5836 0.0 0.0 -0.0 0.0 -0.0 10.377 29.2956 2.75813 -26.357 -0.166274 -4.0058 23.198 -8.23692 3.12009 1.77842 -0.0 -0.0 0.0 0.0 0.0 
3564.7901762 740.609 -1476.80244192 11.1943242249 60.8906803411 -18.7823530604 -2.73584 1.33865 5.9604 -2.7166 0.957374 6.03313 -2.58912 -0.607656 6.07816 -2.64046 0.358061 6.09788 -21.3905 16.6626 -5.93886 -23.6027 34.9091 2.75881 -0.0 0.0 -0.0 -6.29214 23.627 -5.92193 15.3605 3.34714 73.3736 2.19546 -47.3957 0.963738 5.20809 0.154166 -0.64716 4.90401 31.4172 42.2259 -0.0 0.0 -0.0 12.1728 27.4321 -23.6056 -3.12449 25.4649 -63.9496 0.178187 5.04448 -0.00784908 69.5345 2.69221 7.91343 -0.0220065 2.10849 1.03861 0.0 0.0 0.0 -15.2434 52.8791 11.6081 -11.269 0.29751 1.70104 23.3175 -10.6072 -3.28336 -18.5836 0.0 0.0 -0.0 0.0 -0.0 10.377 29.2956 2.75813 -26.357 -0.166274 -4.0058 23.198 -8.23692 3.12009 1.77842 -0.0 -0.0 0.0 0.0 0.0 
3553.65148891 738.199 -1487.10063245 11.0448398634 59.7974098288 -19.034553287 -2.58438 1.43438 5.97689 -2.56513 1.05187 6.05565 -2.42761 -0.504153 6.12536 -2.47962 0.467693 6.12824 -22.0824 14.7576 -5.22522 -23.8313 30.8638 2.48204 -0.0 0.0 -0.0 -6.45191 23.9218 -6.0562 14.1244 4.60265 72.6757 1.94633 -43.9498 0.785441 1.54818 0.0519699 -0.190899 4.51033 31.2759 39.2839 -0.0 0.0 -0.0 12.0394 27.4225 -23.3029 -0.221629 28.242 -64.7151 0.193828 5.48466 -0.00928425 69.6462 2.70374 7.92194 -0.386785 2.56056 3.68243 0.0 0.0 0.0 -14.4865 49.1353 11.3514 -12.4641 0.309304 1.88403 22.761 -7.03977 -3.15929 -16.9141 0.0 0.0 -0.0 0.0 -0.0 9.78715 29.8687 2.52455 -27.7384 -0.124025 -4.21358 21.9664 -1.89027 2.98302 1.54186 -0.0 -0.0 0.0 0.0 0.0 
3524.23328107 745.968 -1488.39934076 13.1089696795 63.6310203323 -21.8466582112 -2.56406 1.25805 6.08647 -2.54388 0.868951 6.15384 -2.42423 -0.706658 6.1745 -2.47728 0.275416 6.20857 -21.2136 12.7007 -3.39457 -22.3617 26.1155 2.7739 -0.0 0.0 -0.0 -5.46216 23.1058 -4.90435 6.35891 14.5114 72.6093 2.36107 -49.4626 1.08765 0.601465 0.0208037 -0.073999 3.99112 30.3862 35.5705 -0.0 0.0 -0.0 12.4863 27.3182 -24.3361 1.57481 30.9709 -65.2973 0.205207 5.80452 -0.0104034 69.0058 2.63787 7.87283 -1.16907 1.03556 8.29275 0.0 0.0 0.0 -14.0682 48.0181 10.6495 -17.3588 0.31773 2.63475 21.7694 -4.44919 -3.00683 -13.3415 0.0 0.0 -0.0 0.0 -0.0 7.79174 29.7551 4.437 -31.4977 0.0162078 -4.77337 23.2205 11.3708 3.28543 0.353293 -0.0 -0.0 0.0 0.0 0.0 
